<svg xmlns="http://www.w3.org/2000/svg" width="132.26" height="39" viewBox="0 0 132.26 39" aria-labelledby="site-logo-title site-logo-desc" role="img" focusable="false" class="logo__svg">
        <title id="site-logo-title">Gemeente Delft</title>
        <desc id="site-logo-desc">Logo dat naar de hoofdpagina leidt</desc>
        <path role="presentation" class="logo__path" fill="#0078c8" d="m132.26,18.684c-3.1,0-5.613-2.513-5.613-5.613,0-.338-.274-.612-.612-.612-.338,0-.612.274-.612.612,0,3.1-2.513,5.613-5.613,5.613s-5.613-2.513-5.613-5.613c0-.338-.273-.613-.611-.614-.338,0-.613.273-.614.611v.003c0,3.1-2.513,5.613-5.613,5.613s-5.613-2.513-5.613-5.613c0-.338-.274-.612-.612-.612-.338,0-.612.274-.612.612,0,3.1-2.513,5.613-5.613,5.613V6.132c3.06,0,5.557-2.451,5.613-5.511,0-.338.274-.612.612-.612.333-.056.649.168.706.502.006.037.009.074.009.111,0,3.1,2.513,5.613,5.613,5.613s5.613-2.513,5.613-5.613h0c0-.338.273-.613.611-.614.338,0,.613.273.614.611v.003c0,3.1,2.513,5.613,5.613,5.613s5.613-2.513,5.613-5.613c-.004-.302.212-.562.51-.612.338,0,.612.274.612.612,0,3.1,2.513,5.613,5.613,5.613v12.45m0,12.45v-2.041h-2.653v-3.062h-.51l-3.572,4.592v.51h1.021v4.592c-.113,1.687,1.164,3.146,2.851,3.259.07.005.141.007.211.007.918.023,1.817-.265,2.551-.816v-2.245c-.435.435-1.018.69-1.633.714-.714,0-1.021-.612-1.021-1.531v-3.878l2.755-.102Zm-33.269,5.205c2.347,0,3.062-1.837,3.062-4.694,0-2.653-.714-4.796-2.857-4.796h-1.021v9.491h.816m-4.082-11.838h4.184c4.49,0,6.123,3.572,6.123,7.042,0,3.266-1.531,7.144-5.919,7.144h-4.388v-14.185Zm16.839,8.47c0-1.633-.408-2.347-1.225-2.347s-1.225.816-1.225,2.347h2.449m2.551,5.001c-1.048.624-2.25.942-3.47.918-3.674,0-4.49-2.857-4.49-4.796,0-3.062,1.837-5.205,4.286-5.205,2.245,0,4.082,1.735,3.98,5.409h-5.205c.102,1.735,1.021,2.551,2.347,2.551.901.012,1.787-.236,2.551-.714v1.837Zm1.429-13.573h3.062v14.287h-3.062v-14.287Z"></path>
        <path role="presentation" class="logo__path" fill="#0078c8" d="m121.238,31.135h-.918v-2.041h1.021v-.714c-.17-2.078,1.377-3.901,3.455-4.071.141-.011.282-.015.423-.011.55.008,1.098.076,1.633.204v2.041c-.336-.065-.678-.099-1.021-.102-1.021,0-1.531.612-1.531,1.633v1.021h.816v2.041h-.816v7.552h-3.062v-7.552m-110.523,6.123c-.671.536-1.431.951-2.245,1.225-.763.216-1.554.319-2.347.306-3.572,0-6.123-2.96-6.123-7.144s2.653-7.552,6.225-7.552c1.407-.015,2.788.375,3.98,1.123v3.062c-.892-.914-2.093-1.46-3.368-1.531-2.245,0-3.572,1.837-3.572,4.899,0,2.857,1.021,4.388,2.857,4.388.459-.008.911-.112,1.327-.306v-2.449h-1.633v-2.347h4.899v6.123m7.144-4.082c0-1.531-.408-2.347-1.123-2.347s-1.327.714-1.327,2.347h2.449m2.551,5.001c-1.08.638-2.318.956-3.572.918-2.755,0-4.388-1.837-4.388-4.796s1.735-5.205,4.082-5.205c1.874-.084,3.525,1.22,3.878,3.062.21.764.313,1.554.306,2.347h-5.409c.102,1.633,1.021,2.551,2.449,2.551.899-.004,1.781-.251,2.551-.714l.102,1.837Zm2.143-8.981h3.062v1.633c.617-.99,1.691-1.604,2.857-1.633,1.253-.056,2.385.741,2.755,1.939.452-1.286,1.7-2.118,3.062-2.041,1.001.047,1.916.58,2.449,1.429.396.716.573,1.532.51,2.347v6.123h-3.062v-5.715c0-1.429-.306-1.837-1.021-1.837s-1.225.408-1.735,1.327v6.225h-3.062v-5.307c0-1.633-.204-2.245-1.021-2.245-.612,0-1.225.51-1.735,1.429v6.123h-3.062v-9.593m22.145,3.776c0-1.531-.408-2.347-1.225-2.347s-1.225.714-1.225,2.347h2.347m2.551,5.001c-1.08.638-2.318.956-3.572.918-2.653,0-4.388-1.837-4.388-4.796s1.837-5.205,4.184-5.205c1.836-.033,3.429,1.259,3.776,3.062.21.764.313,1.554.306,2.347h-5.205c0,1.633,1.021,2.551,2.449,2.551.864-.022,1.708-.268,2.449-.714v1.837Zm7.348-5.001c0-1.531-.408-2.347-1.225-2.347s-1.225.714-1.225,2.347h2.449m2.551,5.001c-1.08.638-2.318.956-3.572.918-2.755,0-4.49-1.837-4.49-4.796s1.837-5.205,4.184-5.205c1.836-.033,3.429,1.259,3.776,3.062.21.764.313,1.554.306,2.347h-5.205c.102,1.633,1.021,2.551,2.449,2.551.899-.004,1.781-.251,2.551-.714v1.837Zm2.143-8.981h3.062v1.429c.565-.98,1.625-1.569,2.755-1.531,1.048-.028,2.027.52,2.551,1.429.371.725.547,1.534.51,2.347v6.123h-3.062v-5.103c0-2.041-.204-2.551-1.225-2.551-.714,0-1.225.51-1.633,1.531v6.123h-2.96v-9.797m24.084,3.98c0-1.531-.306-2.347-1.021-2.347s-1.327.714-1.327,2.347h2.347m2.551,5.001c-1.08.638-2.318.956-3.572.918-2.653,0-4.388-1.837-4.388-4.796s1.837-5.205,4.184-5.205c1.836-.033,3.429,1.259,3.776,3.062.216.763.319,1.554.306,2.347h-5.307c.204,1.633,1.021,2.551,2.551,2.551.864-.022,1.708-.268,2.449-.714v1.837Zm-9.389-6.838v-2.041h-2.653v-3.062h-.51l-3.368,4.592v.51h.816v4.592c-.117,1.687,1.156,3.149,2.843,3.266.141.01.282.01.423,0,.883,0,1.743-.286,2.449-.816v-2.245c-.429.444-1.016.7-1.633.714-.714,0-1.021-.612-1.021-1.531v-3.878l2.653-.102Z"></path>
      </svg>
