<?xml version="1.0" encoding="UTF-8"?><svg id="Laag_1" xmlns="http://www.w3.org/2000/svg" viewBox="0 0 521.84 521.84"><defs><style>.cls-1{fill:none;}.cls-2{fill:#343fd5;}</style></defs><g id="Laag_1-2"><rect class="cls-1" x="0" width="521.84" height="521.84"/><path class="cls-2" d="M201.18,254.12c-10.16-57.62,62.78-109.8,189.06-147.73,33.61-10.09,52.48-42.23,46-79.03l-.95-5.4c-1.69-9.57-11.75-16.74-20.79-14.82C200.4,52.61,70.59,122.17,84.34,200.14c6.77,38.39,47.62,74.74,114.81,107.18,14.34,6.92,26.27-7.48,16.79-20.45-7.8-10.67-12.8-21.61-14.77-32.74Z"/><path class="cls-2" d="M320.66,267.71c10.16,57.62-62.78,109.8-189.06,147.73-33.61,10.09-52.48,42.23-46,79.03l.95,5.4c1.69,9.57,11.75,16.74,20.79,14.82,214.09-45.46,343.9-115.01,330.15-192.98-6.77-38.39-47.62-74.74-114.81-107.18-14.34-6.92-26.27,7.48-16.79,20.45,7.8,10.67,12.8,21.61,14.77,32.74Z"/></g></svg>