<?xml version="1.0" encoding="UTF-8"?><svg id="Laag_1" xmlns="http://www.w3.org/2000/svg" viewBox="0 0 111.2 159.12"><g id="Laag_1-2"><path d="M36.9,77.43c-3.18-18.04,19.66-34.38,59.2-46.26,10.52-3.16,16.43-13.22,14.4-24.75l-.3-1.69c-.53-3-3.68-5.24-6.51-4.64C36.65,14.33-3.99,36.11.31,60.53c2.12,12.02,14.91,23.4,35.95,33.56,4.49,2.17,8.23-2.34,5.26-6.4-2.44-3.34-4.01-6.77-4.62-10.25Z"/><path d="M74.31,81.69c3.18,18.04-19.66,34.38-59.2,46.26-10.52,3.16-16.43,13.22-14.4,24.75l.3,1.69c.53,3,3.68,5.24,6.51,4.64,67.04-14.23,107.68-36.01,103.38-60.43-2.12-12.02-14.91-23.4-35.95-33.56-4.49-2.17-8.23,2.34-5.26,6.4,2.44,3.34,4.01,6.77,4.62,10.25Z"/></g></svg>