<?xml version="1.0" encoding="UTF-8"?><svg id="Laag_1" xmlns="http://www.w3.org/2000/svg" viewBox="0 0 685.99 159.12"><defs><style>.cls-1{fill:#fff;}</style></defs><g id="Laag_1-2"><path class="cls-1" d="M36.9,77.43c-3.18-18.04,19.66-34.38,59.2-46.26,10.52-3.16,16.43-13.22,14.4-24.75l-.3-1.69c-.53-3-3.68-5.24-6.51-4.64C36.65,14.33-3.99,36.11.31,60.53c2.12,12.02,14.91,23.4,35.95,33.56,4.49,2.17,8.23-2.34,5.26-6.4-2.44-3.34-4.01-6.77-4.62-10.25Z"/><path class="cls-1" d="M74.31,81.69c3.18,18.04-19.66,34.38-59.2,46.26-10.52,3.16-16.43,13.22-14.4,24.75l.3,1.69c.53,3,3.68,5.24,6.51,4.64,67.04-14.23,107.68-36.01,103.38-60.43-2.12-12.02-14.91-23.4-35.95-33.56-4.49-2.17-8.23,2.34-5.26,6.4,2.44,3.34,4.01,6.77,4.62,10.25Z"/><path class="cls-1" d="M146.82,107.68c1.47,11.2,11.2,19.28,27,19.28,8.26,0,19.1-3.12,24.24-8.45l14.32,14.14c-9.55,9.92-25.16,14.69-38.93,14.69-31.22,0-49.77-19.28-49.77-48.3s18.73-47.38,48.11-47.38,49.22,18.73,45.73,56.01h-70.7ZM196.03,89.13c-1.47-11.75-10.65-17.63-23.51-17.63-12.12,0-22.04,5.88-25.34,17.63h48.85Z"/><path class="cls-1" d="M297.77,144.96v-47.38c0-13.77-7.53-24.24-21.85-24.24s-23.14,11.57-23.14,25.34v46.28h-22.22V54.24h20.02l1.47,12.3c9.18-9,18.36-13.59,29.75-13.59,21.3,0,38.38,15.98,38.38,44.44v47.56h-22.4Z"/><path class="cls-1" d="M363.52,28.9v25.71h24.98v19.28h-25.16v39.12c0,8.63,4.78,12.85,11.75,12.85,3.49,0,7.53-1.1,10.84-2.75l6.24,19.1c-6.43,2.57-11.75,3.67-18.55,3.86-19.65.73-32.5-10.47-32.5-33.06v-39.12h-16.89v-19.28h16.89v-23.32l22.4-2.39Z"/><path class="cls-1" d="M425.96,28.9c0,17.45-26.44,17.45-26.44,0s26.44-17.45,26.44,0ZM401.53,54.06v90.9h22.4V54.06h-22.4Z"/><path class="cls-1" d="M532.46,99.78c0,26.08-17.81,47.2-47.2,47.2s-47.01-21.12-47.01-47.2,18-47.2,46.83-47.2,47.38,21.3,47.38,47.2ZM460.66,99.78c0,13.77,8.26,26.63,24.61,26.63s24.61-12.85,24.61-26.63-9.55-26.81-24.61-26.81c-16.16,0-24.61,13.22-24.61,26.81Z"/><path class="cls-1" d="M604.45,144.96v-48.48c0-11.94-6.24-22.77-18.55-22.77s-19.28,10.83-19.28,22.77v48.48h-22.4V54.24h20.75l1.65,11.02c4.77-9.18,15.24-12.49,23.87-12.49,10.83,0,21.67,4.41,26.81,16.89,8.08-12.85,18.55-16.53,30.3-16.53,25.71,0,38.38,15.79,38.38,42.97v48.85h-22.4v-48.85c0-11.94-4.96-22.04-17.08-22.04s-19.65,10.47-19.65,22.4v48.48h-22.4Z"/></g></svg>