<?xml version="1.0" encoding="UTF-8"?><svg id="Laag_1" xmlns="http://www.w3.org/2000/svg" viewBox="0 0 638 129.88"><defs><style>.cls-1{fill:#343fd5;}</style></defs><g id="Laag_1-2"><path class="cls-1" d="M62.93,61.54c-6.31-5.95-13.52-7.93-22-7.93-10.46,0-16.23,3.25-16.23,8.84s5.23,9.02,16.59,9.74c16.77,1.08,38.05,4.87,38.05,28.49,0,15.69-12.8,29.21-38.23,29.21-14.07,0-28.13-2.34-41.11-15.87l10.82-15.69c6.31,7.03,20.74,12.26,30.66,12.44,8.29.18,16.05-4.15,16.05-10.64,0-6.13-5.05-8.66-17.67-9.38-16.77-1.26-36.79-7.39-36.79-27.59s21.28-27.77,37.51-27.77c13.89,0,24.34,2.7,34.62,11.72l-12.26,14.43Z"/><path class="cls-1" d="M108.56,90.21c1.44,11,11,18.93,26.51,18.93,8.11,0,18.75-3.07,23.8-8.29l14.07,13.89c-9.38,9.74-24.71,14.43-38.23,14.43-30.66,0-48.87-18.93-48.87-47.43s18.39-46.52,47.25-46.52,48.33,18.39,44.9,55h-69.43ZM156.89,72c-1.44-11.54-10.46-17.31-23.08-17.31-11.9,0-21.64,5.77-24.89,17.31h47.97Z"/><path class="cls-1" d="M256.79,126.82v-46.52c0-13.52-7.39-23.8-21.46-23.8s-22.72,11.36-22.72,24.89v45.44h-21.82V37.73h19.66l1.44,12.08c9.02-8.84,18.03-13.34,29.21-13.34,20.92,0,37.69,15.69,37.69,43.64v46.71h-22Z"/><path class="cls-1" d="M321.35,12.85v25.25h24.52v18.93h-24.71v38.41c0,8.48,4.69,12.62,11.54,12.62,3.43,0,7.39-1.08,10.64-2.71l6.13,18.75c-6.31,2.52-11.54,3.61-18.21,3.79-19.29.72-31.92-10.28-31.92-32.46v-38.41h-16.59v-18.93h16.59V15.19l22-2.34Z"/><path class="cls-1" d="M382.66,12.85c0,17.13-25.97,17.13-25.97,0s25.97-17.13,25.97,0ZM358.68,37.55v89.26h22V37.55h-22Z"/><path class="cls-1" d="M487.25,82.46c0,25.61-17.49,46.34-46.34,46.34s-46.16-20.74-46.16-46.34,17.67-46.34,45.98-46.34,46.52,20.92,46.52,46.34ZM416.74,82.46c0,13.52,8.11,26.15,24.16,26.15s24.16-12.62,24.16-26.15-9.38-26.33-24.16-26.33c-15.87,0-24.16,12.98-24.16,26.33Z"/><path class="cls-1" d="M557.94,126.82v-47.61c0-11.72-6.13-22.36-18.21-22.36s-18.93,10.64-18.93,22.36v47.61h-22V37.73h20.38l1.62,10.82c4.69-9.02,14.97-12.26,23.44-12.26,10.64,0,21.28,4.33,26.33,16.59,7.93-12.62,18.21-16.23,29.75-16.23,25.25,0,37.69,15.51,37.69,42.2v47.97h-22v-47.97c0-11.72-4.87-21.64-16.77-21.64s-19.3,10.28-19.3,22v47.61h-22Z"/></g></svg>